<svg xmlns="http://www.w3.org/2000/svg" style="display: none;">
	<defs>
		<symbol id="logo" width="58" height="58" fill="none" viewBox="0 0 58 58">
			<g clip-path="url(#a)">
				<path fill="var(--mint)"
							d="M15.833 59.53c-4.05 1.086-8.4-.424-10.565-4.003-1.297-2.138-1.62-4.692-.924-7.174.689-2.446 2.312-4.555 4.549-5.914 2.237-1.359 4.853-1.818 7.353-1.297 2.52.533 4.637 2.002 5.917 4.144 2.66 4.396 1.03 10.27-3.625 13.088-.863.507-1.773.906-2.705 1.156Zm-3.598-15.933a7.595 7.595 0 0 0-2.1.908c-1.717 1.047-2.961 2.64-3.478 4.505-.526 1.832-.28 3.717.672 5.274 1.974 3.25 6.443 4.176 9.966 2.024 3.528-2.136 4.796-6.532 2.822-9.783-.951-1.557-2.5-2.644-4.36-3.026a7.42 7.42 0 0 0-3.522.098Z"/>
				<path fill="var(--dark-lilac)"
							d="M47.922 57.319a1.194 1.194 0 0 1-1.468-.85L43.166 44.2c-1.545-5.765 1.877-11.704 7.63-13.246 3.232-.866 6.862-.113 9.485 1.963 2.251 1.778 3.441 4.29 3.364 7.09-.087 3.337-1.767 5.426-3.16 6.594-2.08 1.748-4.976 2.645-7.396 2.292-2.295-.334-3.996-1.604-4.666-3.461-.657-1.809-.224-3.858 1.103-5.335 1.592-1.773 4.128-2.401 6.95-1.707a1.203 1.203 0 1 1-.561 2.342c-1.938-.482-3.615-.119-4.597.973-.729.816-.976 1.953-.632 2.913.377 1.021 1.35 1.693 2.75 1.904 1.453.215 3.705-.25 5.508-1.752 1.01-.858 2.235-2.394 2.306-4.83.065-2.588-1.288-4.228-2.446-5.143-2.01-1.584-4.895-2.192-7.37-1.529-4.468 1.198-7.142 5.815-5.938 10.307l3.289 12.271a1.22 1.22 0 0 1-.863 1.474Z"/>
				<path fill="var(--sky)"
							d="M47.923 57.319a1.194 1.194 0 0 1-1.468-.85L43.166 44.2c-1.2-4.477-5.811-7.158-10.296-5.957-2.555.685-4.62 2.43-5.502 4.668-.77 1.95-.564 4.069.595 5.95 1.313 2.134 3.121 2.84 4.41 3.082 2.17.385 4.269-.333 5.38-1.2 1.167-.917 1.668-2.07 1.426-3.23a2.842 2.842 0 0 0-2.048-2.179c-1.298-.342-2.712.296-3.99 1.76a1.202 1.202 0 0 1-1.694.109 1.207 1.207 0 0 1-.11-1.697c1.884-2.162 4.221-3.081 6.407-2.51 1.89.494 3.383 2.079 3.8 4.02.435 2.076-.393 4.127-2.269 5.614-1.86 1.482-4.73 2.148-7.281 1.692-1.774-.318-4.258-1.292-6.031-4.183-1.562-2.55-1.834-5.428-.774-8.094 1.16-2.934 3.822-5.218 7.1-6.097 5.755-1.542 11.688 1.89 13.233 7.655l3.288 12.27a1.24 1.24 0 0 1-.887 1.447Z"/>
				<path fill="var(--yellow)"
							d="M21.652 54.57a1.21 1.21 0 0 1-1.516-1.285c.114-1.117-.05-2.696-2.754-3.525-1.802-.552-3.981-.072-5.24.628-.797.438-1.096.863-1.15 1.05-.14.504.035.578.19.64.5.194 1.335-.03 1.572-.56a1.207 1.207 0 0 1 1.605-.568c.594.29.853.997.569 1.608-.833 1.777-3.04 2.35-4.572 1.778-1.454-.542-2.116-1.919-1.683-3.519.257-.966 1.058-1.837 2.306-2.516 2.131-1.175 4.907-1.488 7.103-.816 3.157.983 4.733 3.132 4.436 6.077-.023.49-.4.884-.866 1.009Z"/>
				<path fill="var(--dark-lilac)"
							d="M5.672 30.289a1.21 1.21 0 0 1-.91-.119 1.21 1.21 0 0 1-.44-1.642l11.18-19.41a1.204 1.204 0 0 1 1.64-.44c.571.33.77 1.071.44 1.643L6.402 29.73a1.21 1.21 0 0 1-.73.558Z"/>
				<path fill="var(--sky)"
							d="M21.522 26.042 17.885 27l-.963-3.591a3.77 3.77 0 0 1 2.658-4.613 3.764 3.764 0 0 1 4.599 2.634l.009.032a3.764 3.764 0 0 1-2.666 4.58Zm-1.96-1.977 1.334-.358a1.369 1.369 0 0 0 .968-1.657 1.369 1.369 0 0 0-1.667-.951 1.372 1.372 0 0 0-.964 1.673l.345 1.289-.016.004Z"/>
				<path fill="var(--red)"
							d="M21.514 35.985a1.194 1.194 0 0 1-1.468-.849L17.87 27.02l-12.2 3.27a1.194 1.194 0 0 1-1.468-.85 1.194 1.194 0 0 1 .847-1.47l14.514-3.889 2.796 10.435a1.194 1.194 0 0 1-.846 1.47Z"/>
				<path fill="var(--orange)"
							d="M29.064 20.31a1.194 1.194 0 0 1-1.468-.849L24.21 6.821l14.61-3.916a1.194 1.194 0 0 1 1.469.85 1.194 1.194 0 0 1-.847 1.469L27.145 8.519l2.762 10.306c.172.644-.2 1.313-.843 1.485Z"/>
				<path fill="var(--sky)"
							d="M41.178 29.387 27.9 32.945a1.194 1.194 0 0 1-1.468-.85 1.194 1.194 0 0 1 .846-1.469l13.277-3.558c2.524-.676 4.029-3.289 3.351-5.817-.677-2.528-3.287-4.038-5.81-3.361l-8.954 2.399a1.194 1.194 0 0 1-1.468-.85 1.194 1.194 0 0 1 .847-1.47l8.953-2.398c3.81-1.021 7.728 1.26 8.747 5.06 1.018 3.8-1.235 7.735-5.044 8.756Z"/>
				<path fill="var(--mint)"
							d="M56.314 19.273a1.21 1.21 0 0 1-.91-.118L46.494 14a7.79 7.79 0 0 1-3.65-4.752 7.733 7.733 0 0 1 .785-5.94C45.78-.427 50.57-1.712 54.317.443l4.425 2.56c.57.33.77 1.07.44 1.642-.33.572-1.069.77-1.64.44l-4.424-2.56a5.426 5.426 0 0 0-7.41 1.986 5.362 5.362 0 0 0-.534 4.113 5.402 5.402 0 0 0 2.52 3.294l8.91 5.155c.57.33.769 1.07.44 1.642-.181.29-.44.48-.73.558Z"/>
				<path fill="var(--dark-lilac)"
							d="M66.433 22.896a7.805 7.805 0 0 1-5.927-.776l-7.324-4.25a1.209 1.209 0 0 1-.44-1.643 1.204 1.204 0 0 1 1.64-.44l7.319 4.235a5.426 5.426 0 0 0 7.41-1.985 5.45 5.45 0 0 0-1.99-7.424L55.255 3.748a1.21 1.21 0 0 1-.44-1.643 1.204 1.204 0 0 1 1.64-.439L68.32 8.531c3.732 2.159 5.018 6.957 2.87 10.709a7.79 7.79 0 0 1-4.757 3.656Z"/>
			</g>
			<defs>
				<clipPath id="a">
					<rect width="58" height="58" fill="#fff" rx="29"/>
				</clipPath>
			</defs>
		</symbol>
		<symbol id="pattern" width="58" height="59" fill="none" viewBox="0 0 58 59">
			<g clip-path="url(#a)">
				<path stroke="var(--green)" stroke-linecap="round" stroke-linejoin="round" stroke-width="2.761"
							d="m23.57 44.697 14.5-14.75-14.5-14.75m41.82 0-14.5 14.75 14.5 14.75"/>
				<path stroke="var(--yellow)" stroke-linecap="round" stroke-linejoin="round" stroke-width="2.761"
							d="m36.975 15.197 14.5 14.75-14.5 14.75"/>
				<path stroke="var(--lilac)" stroke-linecap="round" stroke-linejoin="round" stroke-width="2.761"
							d="m8.59 15.197 14.5 14.75-14.5 14.75"/>
				<path stroke="var(--yellow)" stroke-linecap="round" stroke-linejoin="round" stroke-width="2.761"
							d="M-11.895 29.947H9.761"/>
			</g>
			<defs>
				<clipPath id="a">
					<rect width="58" height="59" fill="#fff" rx="29"/>
				</clipPath>
			</defs>
		</symbol>
	</defs>
</svg>
