<svg xmlns="http://www.w3.org/2000/svg" width="512" height="512" fill="none"><rect width="512" height="512" fill="#fff" rx="256"/><path fill="#4DB178" d="M102.264 362.475c-20.375 0-38.89-12.788-44.55-32.671-3.397-11.88-1.699-24.503 4.689-35.476 6.307-10.808 16.575-18.81 28.784-22.44 12.209-3.63 25.065-2.475 36.142 3.217 11.158 5.775 19.243 15.511 22.559 27.391 6.953 24.421-8.086 50.409-33.474 57.916-4.69 1.32-9.46 2.063-14.15 2.063Zm3.153-80.77c-3.638 0-7.357.495-10.996 1.65-9.379 2.806-17.222 8.828-21.992 17.078-4.77 8.086-5.984 17.408-3.477 26.071 5.175 18.068 24.984 28.216 44.228 22.441 19.243-5.693 30.724-25.081 25.55-43.149-2.507-8.663-8.409-15.84-16.656-20.048-5.175-2.723-10.835-4.043-16.657-4.043Z"/><path fill="#B35197" d="M255.657 392.999c-3.234 0-5.821-2.64-5.821-5.94v-62.867c0-29.535 23.529-53.543 52.475-53.543 16.251 0 32.341 8.25 42.044 21.533 8.328 11.385 10.754 24.915 6.873 38.198-4.609 15.841-15.12 23.678-23.125 27.473-11.966 5.693-26.682 6.27-37.597 1.485-10.35-4.537-16.737-12.787-17.546-22.523-.808-9.487 3.801-18.728 11.886-24.09 9.703-6.435 22.397-6.188 34.768.742 2.829 1.568 3.881 5.198 2.344 8.085-1.536 2.888-5.094 3.961-7.923 2.393-8.49-4.785-16.818-5.198-22.801-1.238-4.447 2.971-7.035 8.086-6.631 13.118.486 5.363 4.205 9.818 10.512 12.623 6.549 2.888 17.707 3.548 28.056-1.32 5.822-2.805 13.503-8.58 16.899-20.13 3.557-12.293-.728-21.863-5.013-27.721-7.439-10.148-20.214-16.748-32.666-16.748-22.477 0-40.831 18.645-40.831 41.663v62.867c-.081 3.3-2.668 5.94-5.903 5.94Z"/><path fill="#1FB2DF" d="M255.647 393.001c-3.235 0-5.822-2.64-5.822-5.94v-62.866c0-22.936-18.273-41.664-40.832-41.664-12.855 0-24.741 5.693-31.695 15.263-6.064 8.333-7.762 18.728-4.689 29.206 3.477 11.88 11.077 17.573 16.818 20.378 9.702 4.62 20.456 3.877 26.762 1.155 6.631-2.888 10.431-7.755 10.754-13.613.324-5.363-2.426-10.478-6.873-13.035-5.659-3.3-13.098-2.063-20.941 3.3-2.668 1.815-6.307 1.072-8.085-1.65-1.779-2.723-1.051-6.435 1.617-8.25 11.562-7.921 23.69-9.323 33.231-3.796 8.247 4.786 13.26 14.273 12.775 24.091-.566 10.478-7.034 19.223-17.707 23.926-10.592 4.702-24.903 4.207-36.304-1.238-7.924-3.795-18.354-11.633-23.043-27.721-4.124-14.19-1.779-28.298 6.549-39.683 9.136-12.54 24.499-20.048 40.993-20.048 28.946 0 52.475 24.008 52.475 53.544v62.866c-.162 3.135-2.749 5.775-5.983 5.775Z"/><path fill="#E74B43" d="M407.971 362.227c-26.439 0-48.028-20.708-48.028-46.119 0-25.41 21.508-46.118 48.028-46.118s48.028 20.708 48.028 46.118c0 25.411-21.589 46.119-48.028 46.119Zm0-80.275c-20.052 0-36.304 15.346-36.304 34.156 0 18.811 16.333 34.156 36.304 34.156 19.971 0 36.304-15.345 36.304-34.156 0-18.81-16.252-34.156-36.304-34.156Z"/><path fill="#FBC454" d="M373.69 346.221c-2.345 0-4.528-1.485-5.417-3.795-5.094-13.695-.405-25.988 13.179-34.733 9.379-6.023 22.882-8.085 34.363-5.198 6.711 1.65 11.562 4.785 13.988 9.075 4.043 7.095 2.668 14.521-3.477 18.976-6.468 4.702-17.545 4.785-23.69-2.64-2.102-2.475-1.779-6.27.647-8.416 2.425-2.145 6.145-1.815 8.247.661 1.779 2.145 5.983 2.145 8.085.66.728-.495 1.456-.99.081-3.301-.485-.825-2.425-2.475-6.711-3.547-6.791-1.733-17.626-1.238-25.388 3.712-11.643 7.426-10.43 15.181-8.49 20.378 1.132 3.053-.323 6.518-3.396 7.673-.647.413-1.374.495-2.021.495Zm-237.872 0c-.728 0-1.375-.165-2.103-.412-2.991-1.155-4.527-4.62-3.395-7.673 1.94-5.197 3.153-12.953-8.49-20.378-7.762-4.95-18.597-5.445-25.389-3.712-4.285 1.072-6.225 2.722-6.71 3.547-1.294 2.228-.566 2.805.08 3.3 2.103 1.568 6.307 1.568 8.086-.66 2.102-2.475 5.741-2.805 8.247-.66 2.426 2.145 2.749 5.858.647 8.415-6.145 7.426-17.222 7.343-23.69 2.641-6.145-4.456-7.52-11.881-3.477-18.976 2.425-4.29 7.277-7.425 13.988-9.075 11.481-2.888 24.903-.825 34.363 5.197 13.583 8.746 18.273 21.038 13.179 34.734-.728 2.31-2.992 3.712-5.336 3.712Z"/><path fill="#B95598" d="M91.34 209.68a5.824 5.824 0 0 1-4.124-1.733c-2.264-2.31-2.264-6.105 0-8.415l76.892-78.46a5.773 5.773 0 0 1 8.247 0c2.264 2.31 2.264 6.106 0 8.416l-76.892 78.459a5.824 5.824 0 0 1-4.124 1.733Z"/><path fill="#1DB3E0" d="m171.076 209.681-18.273-.082v-18.398c0-10.313 8.247-18.646 18.273-18.646s18.192 8.251 18.273 18.481v.165c-.081 10.23-8.247 18.48-18.273 18.48Zm-6.711-11.962h6.711c3.638 0 6.549-2.971 6.63-6.683-.081-3.713-2.992-6.683-6.63-6.683-3.639 0-6.63 3.053-6.63 6.765v6.601h-.081Z"/><path fill="#E74B44" d="M158.529 257.2c-3.234 0-5.821-2.64-5.821-5.94v-41.581H91.339c-3.234 0-5.821-2.64-5.821-5.94 0-3.3 2.587-5.94 5.821-5.94h73.012v53.461c0 3.3-2.587 5.94-5.822 5.94Z"/><path fill="#EA692B" d="M213.689 191.943c-3.234 0-5.822-2.641-5.822-5.941v-64.764h73.497c3.234 0 5.822 2.64 5.822 5.94 0 3.301-2.588 5.941-5.822 5.941H219.51v52.801c0 3.3-2.587 6.023-5.821 6.023Z"/><path fill="#1FB2DF" d="M259.113 250.85h-66.786c-3.234 0-5.821-2.64-5.821-5.94 0-3.301 2.587-5.941 5.821-5.941h66.786c12.695 0 23.044-10.56 23.044-23.513 0-12.952-10.349-23.513-23.044-23.513h-45.036c-3.234 0-5.821-2.64-5.821-5.94 0-3.3 2.587-5.94 5.821-5.94h45.036c19.163 0 34.687 15.923 34.687 35.393 0 19.471-15.524 35.394-34.687 35.394Z"/><path fill="#4DB178" d="M342.894 221.891a5.823 5.823 0 0 1-4.123-1.733l-35.334-36.053c-7.196-7.343-11.158-17.078-11.158-27.391 0-10.395 3.962-20.13 11.158-27.391 14.797-15.097 38.891-15.097 53.769 0l17.545 17.903c2.264 2.31 2.264 6.105 0 8.416a5.773 5.773 0 0 1-8.247 0l-17.546-17.903a26.029 26.029 0 0 0-37.274 0c-5.013 5.115-7.681 11.797-7.681 18.975 0 7.178 2.749 13.943 7.681 18.976l35.334 36.053c2.264 2.31 2.264 6.105 0 8.415-1.213 1.155-2.668 1.733-4.124 1.733Z"/><path fill="#B35197" d="M385.822 252.17a37.574 37.574 0 0 1-26.843-11.302l-29.027-29.701c-2.264-2.31-2.264-6.105 0-8.415a5.773 5.773 0 0 1 8.247 0l29.027 29.618a26.029 26.029 0 0 0 37.274 0c10.268-10.478 10.268-27.556 0-38.033l-47.058-48.017c-2.263-2.31-2.263-6.105 0-8.415a5.775 5.775 0 0 1 8.248 0l47.057 48.016c14.796 15.098 14.796 39.684 0 54.864-7.439 7.59-17.141 11.385-26.925 11.385Z"/></svg>